<svg width="188" height="32" viewBox="0 0 188 32" fill="none" xmlns="http://www.w3.org/2000/svg">
<path fill-rule="evenodd" clip-rule="evenodd" d="M0 28.9876C13.9449 30.3835 23.6026 22.9969 35.4907 22.9969C44.192 22.9969 49.1817 26.7687 55.8219 27.5324V27.8294C48.0009 27.9397 43.1128 25.8013 35.4103 25.7844C26.1038 25.7631 15.7605 30.3326 8.18072 30.3793C2.36153 30.4175 0.232768 29.3313 0 29.2846V28.9876Z" fill="white"/>
<path fill-rule="evenodd" clip-rule="evenodd" d="M23.6111 11.2698C13.8899 13.5312 12.9123 22.6192 13.1958 26.2935C14.2369 26.0644 15.3119 25.7716 16.226 25.4958C16.2049 22.1822 17.3602 16.0726 24.3856 14.3501C31.7241 12.5511 35.9055 18.3128 37.1412 21.4016C38.2458 21.4228 39.27 21.5289 40.3111 21.7452C40.2561 19.3269 34.5723 8.71567 23.6111 11.2656" fill="white"/>
<path fill-rule="evenodd" clip-rule="evenodd" d="M1.67593 21.2064C1.74364 20.7524 2.10337 20.1457 3.13178 20.3366C4.54955 20.5954 10.301 22.0422 10.119 22.8823C10.0175 23.349 9.30647 23.9642 2.82284 22.6871C1.61244 22.4495 1.62937 21.5161 1.67593 21.2106" fill="white"/>
<path fill-rule="evenodd" clip-rule="evenodd" d="M7.4401 8.669C7.67286 8.27443 8.28229 7.85015 9.16258 8.41444C10.3772 9.19511 15.1172 12.5384 14.4993 13.5185C14.4231 13.6415 13.7629 13.6203 7.94795 10.4722C6.86453 9.88668 7.28351 8.9363 7.44433 8.669" fill="white"/>
<path fill-rule="evenodd" clip-rule="evenodd" d="M21.8928 0.0222303C22.3372 -0.083839 23.0736 0.170728 23.2852 1.19748C23.573 2.61457 24.3686 8.30837 23.3445 8.45262C23.2471 8.46535 22.9932 8.31685 22.5996 7.3792C22.1976 6.42033 21.5204 3.74314 20.9618 1.75752C20.6274 0.569548 21.5924 0.0986003 21.8928 0.0264731" fill="white"/>
<path fill-rule="evenodd" clip-rule="evenodd" d="M38.2966 2.4788C38.7748 2.74609 39.1684 3.43342 38.4955 4.32865C37.6279 5.48268 34.64 10.3152 33.7852 9.7297C33.7047 9.67454 33.5397 9.25875 33.7809 8.27018C34.0179 7.29434 35.3299 5.11356 36.5318 3.04733C37.1497 1.98239 37.9623 2.29211 38.3008 2.4788" fill="white"/>
<path fill-rule="evenodd" clip-rule="evenodd" d="M48.6654 11.8553C48.9701 12.3093 48.9955 13.1494 47.9882 13.6415C46.6932 14.2737 41.7924 17.0655 41.293 16.1575C41.2464 16.0684 41.293 15.6356 42.059 14.9695C42.8546 14.278 44.8014 12.9033 46.8074 11.605C47.8401 10.9389 48.4495 11.5329 48.6654 11.8553Z" fill="white"/>
<path d="M64.6078 27.6215H59.4742V14.7065H64.6078C66.6096 14.7065 68.9923 15.4192 68.9923 18.0285C68.9923 19.4499 68.1374 20.4003 66.8805 20.8203V20.8585C68.3533 21.113 69.5171 22.1737 69.5171 23.8666C69.5171 26.6753 67.0625 27.6257 64.6036 27.6257L64.6078 27.6215ZM64.0069 17.1842H62.479V19.8487H64.155C65.3188 19.8487 65.9917 19.3565 65.9917 18.4443C65.9917 17.5321 65.3188 17.1842 64.0069 17.1842ZM64.2058 22.1483H62.479V25.1055H64.2269C65.2088 25.1055 66.4107 24.8297 66.4107 23.5739C66.4107 22.4962 65.5389 22.1525 64.21 22.1525L64.2058 22.1483Z" fill="white"/>
<path d="M76.5255 20.9815C76.2504 20.9094 75.9965 20.8924 75.7595 20.8924C74.1597 20.8924 73.6307 22.2077 73.6307 22.9544V27.6257H70.6471V18.5419H73.5207V19.8572H73.5588C74.0159 18.945 74.9046 18.2874 76.0134 18.2874C76.2504 18.2874 76.5043 18.3043 76.6525 18.3595L76.5255 20.9858V20.9815Z" fill="white"/>
<path d="M78.6204 17.2776C77.6555 17.2776 76.9106 16.5308 76.9106 15.6356C76.9106 14.7404 77.6555 13.9937 78.6204 13.9937C79.5853 13.9937 80.3302 14.7234 80.3302 15.6356C80.3302 16.5478 79.5642 17.2776 78.6204 17.2776ZM77.1265 27.6215V18.5377H80.1101V27.6215H77.1265Z" fill="white"/>
<path d="M85.9886 32C84.4057 32 82.5478 31.4909 81.329 30.5787L82.8229 28.4446C83.6947 29.2125 84.8078 29.5943 85.8235 29.5943C87.5714 29.5943 88.3882 28.5718 88.3882 27.0572V26.5099H88.3332C87.7703 27.2396 86.7842 27.7148 85.5865 27.7148C82.8399 27.7148 81.257 25.5637 81.257 23.0435C81.257 20.5233 82.8399 18.2831 85.5696 18.2831C86.6996 18.2831 87.8253 18.7413 88.4644 19.7044H88.5025V18.5377H91.3253V26.7644C91.3253 30.3199 89.2135 32 85.9928 32H85.9886ZM86.2806 20.7269C84.9348 20.7269 84.1518 21.7664 84.1518 23.0265C84.1518 24.2866 84.9348 25.3431 86.2806 25.3431C87.6264 25.3431 88.4813 24.2654 88.4813 23.0265C88.4813 21.7876 87.6264 20.7269 86.2806 20.7269Z" fill="white"/>
<path d="M98.8924 27.6215V22.6956C98.8924 21.6731 98.6384 20.7821 97.5635 20.7821C96.4885 20.7821 95.9426 21.6391 95.9426 22.7168V27.6257H92.9589V13.8324H95.9426V19.6875H95.9806C96.3827 18.9577 97.3265 18.2831 98.5834 18.2831C101.042 18.2831 101.897 20.1796 101.897 22.004V27.6215H98.8924Z" fill="white"/>
<path d="M106.624 20.7821V24.2485C106.624 25.0885 106.9 25.5255 107.754 25.5255C108.046 25.5255 108.41 25.4704 108.626 25.3813L108.664 27.5705C108.262 27.7148 107.572 27.8463 106.938 27.8463C104.517 27.8463 103.717 26.5523 103.717 24.6176V20.7864H102.261V18.5419H103.7V16.1532H106.629V18.5419H108.757V20.7864H106.629L106.624 20.7821Z" fill="white"/>
<path d="M121.475 27.6215V22.2204H116.451V27.6215H113.341V14.7065H116.451V19.5941H121.475V14.7065H124.586V27.6215H121.475Z" fill="white"/>
<path d="M130.883 27.9142C128.153 27.9142 125.86 26.0177 125.86 23.0435C125.86 20.0693 128.153 18.2449 130.883 18.2449C133.613 18.2449 135.924 20.0693 135.924 23.0435C135.924 26.0177 133.63 27.9142 130.883 27.9142ZM130.883 20.727C129.482 20.727 128.754 21.8767 128.754 23.0435C128.754 24.2103 129.499 25.3982 130.9 25.3982C132.301 25.3982 133.046 24.2145 133.046 23.0435C133.046 21.8725 132.28 20.727 130.879 20.727H130.883Z" fill="white"/>
<path d="M142.932 20.9815C142.661 20.9094 142.403 20.8924 142.166 20.8924C140.566 20.8924 140.037 22.2077 140.037 22.9544V27.6257H137.054V18.5419H139.927V19.8572H139.965C140.422 18.945 141.311 18.2874 142.42 18.2874C142.657 18.2874 142.911 18.3043 143.059 18.3595L142.932 20.9858V20.9815Z" fill="white"/>
<path d="M145.023 17.2776C144.058 17.2776 143.313 16.5308 143.313 15.6356C143.313 14.7404 144.058 13.9937 145.023 13.9937C145.988 13.9937 146.732 14.7234 146.732 15.6356C146.732 16.5478 145.966 17.2776 145.023 17.2776ZM143.529 27.6215V18.5377H146.512V27.6215H143.529Z" fill="white"/>
<path d="M147.57 27.6215V25.2879L151.828 20.8373H147.735V18.5377H155.468V20.7821L151.083 25.3049H155.65V27.6215H147.57Z" fill="white"/>
<path d="M161.236 27.9142C158.506 27.9142 156.212 26.0177 156.212 23.0435C156.212 20.0693 158.506 18.2449 161.236 18.2449C163.966 18.2449 166.276 20.0693 166.276 23.0435C166.276 26.0177 163.983 27.9142 161.236 27.9142ZM161.236 20.727C159.835 20.727 159.107 21.8767 159.107 23.0435C159.107 24.2103 159.852 25.3982 161.253 25.3982C162.654 25.3982 163.399 24.2145 163.399 23.0435C163.399 21.8725 162.633 20.727 161.232 20.727H161.236Z" fill="white"/>
<path d="M173.357 27.6215V22.6574C173.357 21.6519 173.082 20.7397 172.011 20.7397C170.94 20.7397 170.411 21.6519 170.411 22.6914V27.6172H167.411V18.5334H170.305V19.7935H170.344C170.763 18.9917 171.799 18.2789 173.056 18.2789C175.494 18.2789 176.37 20.1754 176.37 21.9998V27.6172H173.37L173.357 27.6215Z" fill="white"/>
<path d="M183.184 21.2191C182.71 20.7651 182.02 20.4003 181.292 20.4003C180.729 20.4003 180.162 20.5997 180.162 21.13C180.162 21.6604 180.653 21.7876 181.817 22.0422C183.201 22.3519 184.712 23.0435 184.712 24.817C184.712 27.1166 182.693 27.9185 180.835 27.9185C179.362 27.9185 177.834 27.4263 176.886 26.5141L178.562 24.7449C179.091 25.3304 179.908 25.7674 180.784 25.7674C181.275 25.7674 181.859 25.568 181.859 24.9825C181.859 24.397 181.296 24.2357 180.056 23.943C178.799 23.6502 177.415 23.0138 177.415 21.2955C177.415 19.1232 179.455 18.2492 181.182 18.2492C182.528 18.2492 183.929 18.6862 184.822 19.5262L183.184 21.2234V21.2191Z" fill="white"/>
<path d="M188 26.4802C188 26.6371 187.97 26.7856 187.911 26.9256C187.852 27.0657 187.767 27.1845 187.666 27.282C187.564 27.3839 187.441 27.4645 187.302 27.5196C187.162 27.579 187.014 27.6087 186.857 27.6087C186.701 27.6087 186.548 27.579 186.409 27.5196C186.269 27.4602 186.146 27.3796 186.041 27.282C185.935 27.1802 185.854 27.0614 185.795 26.9256C185.736 26.7899 185.706 26.6414 185.706 26.4802C185.706 26.3189 185.736 26.1747 185.795 26.0347C185.854 25.8946 185.939 25.7759 186.041 25.6698C186.146 25.568 186.269 25.4873 186.409 25.4237C186.548 25.3643 186.701 25.3346 186.857 25.3346C187.014 25.3346 187.162 25.3643 187.302 25.4237C187.441 25.4831 187.56 25.5637 187.666 25.6698C187.767 25.7716 187.848 25.8946 187.911 26.0347C187.97 26.1747 188 26.3232 188 26.4802ZM187.818 26.4802C187.818 26.3444 187.793 26.2213 187.742 26.1025C187.691 25.9837 187.623 25.8819 187.534 25.7928C187.446 25.7037 187.344 25.6358 187.23 25.5849C187.115 25.534 186.989 25.5086 186.853 25.5086C186.718 25.5086 186.595 25.534 186.476 25.5849C186.358 25.6358 186.256 25.7037 186.168 25.7928C186.079 25.8819 186.011 25.9837 185.96 26.1025C185.909 26.2213 185.884 26.3486 185.884 26.4802C185.884 26.6117 185.909 26.7347 185.96 26.8535C186.011 26.9723 186.079 27.0741 186.168 27.1632C186.256 27.2523 186.358 27.3202 186.476 27.3711C186.595 27.422 186.718 27.4475 186.853 27.4475C186.989 27.4475 187.111 27.422 187.23 27.3711C187.344 27.3202 187.446 27.2523 187.534 27.1632C187.623 27.0741 187.691 26.9723 187.742 26.8535C187.793 26.7347 187.818 26.6117 187.818 26.4802ZM187.099 27.1123L186.849 26.6286H186.705V27.1123H186.349V25.8013H186.912C186.976 25.8013 187.039 25.8098 187.103 25.8225C187.166 25.8352 187.226 25.8607 187.276 25.8904C187.327 25.9244 187.369 25.9668 187.403 26.0177C187.437 26.0728 187.45 26.1365 187.45 26.2129C187.45 26.302 187.424 26.3741 187.378 26.4377C187.327 26.5014 187.268 26.5438 187.187 26.5735L187.518 27.1123H187.099ZM187.069 26.2213C187.069 26.1789 187.048 26.145 187.01 26.1238C186.972 26.1025 186.934 26.0941 186.891 26.0941H186.701V26.3656H186.891C186.938 26.3656 186.98 26.3529 187.014 26.3232C187.048 26.2977 187.065 26.2595 187.065 26.2171L187.069 26.2213Z" fill="white"/>
</svg>
