<svg width="56" height="31" viewBox="0 0 56 31" fill="none" xmlns="http://www.w3.org/2000/svg">
<path fill-rule="evenodd" clip-rule="evenodd" d="M0 28.9876C13.9449 30.3835 23.6026 22.9969 35.4907 22.9969C44.192 22.9969 49.1817 26.7687 55.8219 27.5324V27.8294C48.0009 27.9397 43.1128 25.8013 35.4103 25.7844C26.1038 25.7631 15.7605 30.3326 8.18072 30.3793C2.36153 30.4175 0.232768 29.3313 0 29.2846V28.9876Z" fill="#16488E"/>
<path fill-rule="evenodd" clip-rule="evenodd" d="M23.6111 11.2698C13.8899 13.5312 12.9123 22.6192 13.1958 26.2935C14.2369 26.0644 15.3119 25.7716 16.226 25.4958C16.2049 22.1822 17.3602 16.0726 24.3856 14.3501C31.7241 12.5511 35.9055 18.3128 37.1412 21.4016C38.2458 21.4228 39.27 21.5289 40.3111 21.7452C40.2561 19.3269 34.5723 8.71568 23.6111 11.2656" fill="#16488E"/>
<path fill-rule="evenodd" clip-rule="evenodd" d="M1.67593 21.2064C1.74364 20.7524 2.10337 20.1457 3.13178 20.3366C4.54955 20.5954 10.301 22.0422 10.119 22.8823C10.0175 23.349 9.30647 23.9642 2.82284 22.6871C1.61244 22.4495 1.62937 21.5161 1.67593 21.2106" fill="#16488E"/>
<path fill-rule="evenodd" clip-rule="evenodd" d="M7.4401 8.669C7.67286 8.27443 8.28229 7.85015 9.16258 8.41444C10.3772 9.19511 15.1172 12.5384 14.4993 13.5185C14.4231 13.6415 13.7629 13.6203 7.94795 10.4722C6.86453 9.88668 7.28351 8.9363 7.44433 8.669" fill="#16488E"/>
<path fill-rule="evenodd" clip-rule="evenodd" d="M21.8928 0.0222303C22.3372 -0.083839 23.0736 0.170727 23.2852 1.19748C23.573 2.61457 24.3686 8.30837 23.3445 8.45262C23.2471 8.46535 22.9932 8.31685 22.5996 7.3792C22.1976 6.42033 21.5204 3.74314 20.9618 1.75752C20.6274 0.569548 21.5924 0.0986003 21.8928 0.0264731" fill="#16488E"/>
<path fill-rule="evenodd" clip-rule="evenodd" d="M38.2966 2.4788C38.7748 2.74609 39.1684 3.43342 38.4955 4.32865C37.6279 5.48268 34.64 10.3152 33.7852 9.7297C33.7047 9.67454 33.5397 9.25875 33.7809 8.27018C34.0179 7.29435 35.3299 5.11356 36.5318 3.04733C37.1497 1.98239 37.9623 2.29211 38.3008 2.4788" fill="#16488E"/>
<path fill-rule="evenodd" clip-rule="evenodd" d="M48.6653 11.8553C48.9701 12.3093 48.9955 13.1494 47.9882 13.6415C46.6932 14.2737 41.7924 17.0655 41.293 16.1575C41.2464 16.0684 41.293 15.6356 42.059 14.9695C42.8546 14.278 44.8014 12.9033 46.8074 11.605C47.8401 10.9389 48.4495 11.5329 48.6653 11.8553Z" fill="#16488E"/>
</svg>
