<svg width="121" height="48" viewBox="0 0 121 48" fill="none" xmlns="http://www.w3.org/2000/svg">
<path fill-rule="evenodd" clip-rule="evenodd" d="M0.14344 27.3518C13.2722 28.6688 22.3648 21.699 33.5571 21.699C41.7491 21.699 46.4468 25.258 52.6984 25.9786V26.2588C45.3352 26.3629 40.7331 24.3452 33.4814 24.3292C24.7196 24.3092 14.9816 28.6208 7.8454 28.6648C2.36677 28.7009 0.362586 27.676 0.14344 27.632V27.3518Z" fill="white"/>
<path fill-rule="evenodd" clip-rule="evenodd" d="M22.3727 10.6338C13.2204 12.7676 12.3 21.3427 12.567 24.8096C13.5472 24.5935 14.5592 24.3172 15.4199 24.057C15.3999 20.9304 16.4877 15.1656 23.1019 13.5402C30.0109 11.8428 33.9476 17.2794 35.111 20.1938C36.151 20.2138 37.1152 20.3139 38.0954 20.5181C38.0436 18.2362 32.6925 8.22381 22.3727 10.6298" fill="white"/>
<path fill-rule="evenodd" clip-rule="evenodd" d="M1.72129 20.0096C1.78504 19.5813 2.12372 19.0088 3.09194 19.1889C4.42673 19.4332 9.84161 20.7983 9.67028 21.591C9.57465 22.0313 8.90526 22.6118 2.80107 21.4068C1.66152 21.1826 1.67746 20.3019 1.72129 20.0136" fill="white"/>
<path fill-rule="evenodd" clip-rule="evenodd" d="M7.14812 8.17977C7.36726 7.80746 7.94102 7.40713 8.76979 7.93957C9.91333 8.67619 14.3759 11.8308 13.7942 12.7556C13.7225 12.8717 13.1009 12.8517 7.62625 9.88119C6.60623 9.32873 7.00069 8.43198 7.1521 8.17977" fill="white"/>
<path fill-rule="evenodd" clip-rule="evenodd" d="M20.755 0.0209758C21.1734 -0.0791076 21.8667 0.161093 22.0659 1.1299C22.3369 2.46701 23.0859 7.83949 22.1217 7.9756C22.0301 7.98761 21.791 7.8475 21.4204 6.96276C21.0419 6.05801 20.4044 3.5319 19.8785 1.65834C19.5637 0.537406 20.4721 0.0930358 20.755 0.0249791" fill="white"/>
<path fill-rule="evenodd" clip-rule="evenodd" d="M36.1988 2.33891C36.649 2.59112 37.0196 3.23966 36.3861 4.08436C35.5693 5.17327 32.7562 9.73307 31.9514 9.18061C31.8757 9.12856 31.7203 8.73624 31.9474 7.80346C32.1705 6.88269 33.4057 4.82498 34.5373 2.87535C35.119 1.87052 35.884 2.16276 36.2028 2.33891" fill="white"/>
<path fill-rule="evenodd" clip-rule="evenodd" d="M45.9607 11.1863C46.2476 11.6146 46.2715 12.4073 45.3232 12.8717C44.104 13.4682 39.49 16.1024 39.0198 15.2457C38.976 15.1616 39.0198 14.7533 39.741 14.1247C40.4901 13.4722 42.3229 12.1751 44.2115 10.9501C45.1837 10.3216 45.7575 10.882 45.9607 11.1863Z" fill="white"/>
<path d="M4.83315 43.8695H0V31.6834H4.83315C6.71779 31.6834 8.96104 32.3559 8.96104 34.818C8.96104 36.1591 8.15618 37.0558 6.9728 37.4522V37.4882C8.35939 37.7284 9.45512 38.7292 9.45512 40.3266C9.45512 42.9768 7.14413 43.8735 4.82916 43.8735L4.83315 43.8695ZM4.26735 34.0213H2.82896V36.5354H4.40681C5.50254 36.5354 6.13606 36.071 6.13606 35.2103C6.13606 34.3496 5.50254 34.0213 4.26735 34.0213ZM4.45462 38.7052H2.82498V41.4955H4.47056C5.39496 41.4955 6.52654 41.2353 6.52654 40.0503C6.52654 39.0335 5.70574 38.7092 4.45462 38.7092V38.7052Z" fill="white"/>
<path d="M16.0534 37.6043C15.7944 37.5362 15.5553 37.5202 15.3322 37.5202C13.8261 37.5202 13.328 38.7613 13.328 39.4658V43.8735H10.519V35.3024H13.2244V36.5434H13.2603C13.6906 35.6827 14.5273 35.0622 15.5713 35.0622C15.7944 35.0622 16.0335 35.0782 16.1729 35.1302L16.0534 37.6083V37.6043Z" fill="white"/>
<path d="M18.0257 34.1094C17.1172 34.1094 16.416 33.4048 16.416 32.5601C16.416 31.7154 17.1172 31.0108 18.0257 31.0108C18.9341 31.0108 19.6354 31.6994 19.6354 32.5601C19.6354 33.4208 18.9142 34.1094 18.0257 34.1094ZM16.6192 43.8695V35.2984H19.4282V43.8695H16.6192Z" fill="white"/>
<path d="M24.9626 48.001C23.4724 48.001 21.7233 47.5206 20.5757 46.6598L21.9823 44.6462C22.8031 45.3708 23.851 45.7311 24.8072 45.7311C26.4528 45.7311 27.2218 44.7663 27.2218 43.3371V42.8206H27.17C26.6401 43.5092 25.7117 43.9576 24.5841 43.9576C21.9982 43.9576 20.508 41.9279 20.508 39.5499C20.508 37.1719 21.9982 35.0582 24.5682 35.0582C25.632 35.0582 26.6919 35.4905 27.2935 36.3993H27.3294V35.2984H29.987V43.0608C29.987 46.4156 27.9988 48.001 24.9666 48.001H24.9626ZM25.2376 37.3641C23.9705 37.3641 23.2334 38.3449 23.2334 39.5339C23.2334 40.7229 23.9705 41.7197 25.2376 41.7197C26.5046 41.7197 27.3095 40.7029 27.3095 39.5339C27.3095 38.3649 26.5046 37.3641 25.2376 37.3641Z" fill="white"/>
<path d="M37.1112 43.8695V39.2216C37.1112 38.2568 36.8722 37.4161 35.8601 37.4161C34.8481 37.4161 34.3341 38.2248 34.3341 39.2417V43.8735H31.525V30.8587H34.3341V36.3833H34.3699C34.7485 35.6947 35.637 35.0582 36.8204 35.0582C39.1353 35.0582 39.9402 36.8477 39.9402 38.5691V43.8695H37.1112Z" fill="white"/>
<path d="M44.3908 37.4161V40.6869C44.3908 41.4795 44.6498 41.8919 45.4547 41.8919C45.7296 41.8919 46.0723 41.8398 46.2755 41.7558L46.3113 43.8215C45.9328 43.9576 45.2834 44.0817 44.6857 44.0817C42.4066 44.0817 41.6535 42.8607 41.6535 41.0352V37.4201H40.2829V35.3024H41.6376V33.0485H44.3948V35.3024H46.399V37.4201H44.3948L44.3908 37.4161Z" fill="white"/>
<path d="M58.3723 43.8695V38.7733H53.6427V43.8695H50.7142V31.6834H53.6427V36.2952H58.3723V31.6834H61.3009V43.8695H58.3723Z" fill="white"/>
<path d="M67.2297 44.1457C64.6598 44.1457 62.5002 42.3563 62.5002 39.5499C62.5002 36.7436 64.6598 35.0221 67.2297 35.0221C69.7997 35.0221 71.9752 36.7436 71.9752 39.5499C71.9752 42.3563 69.8157 44.1457 67.2297 44.1457ZM67.2297 37.3641C65.9109 37.3641 65.2256 38.449 65.2256 39.5499C65.2256 40.6508 65.9268 41.7718 67.2457 41.7718C68.5645 41.7718 69.2658 40.6548 69.2658 39.5499C69.2658 38.445 68.5446 37.3641 67.2258 37.3641H67.2297Z" fill="white"/>
<path d="M78.5695 37.6043C78.3145 37.5362 78.0715 37.5202 77.8483 37.5202C76.3422 37.5202 75.8441 38.7613 75.8441 39.4658V43.8735H73.0351V35.3024H75.7405V36.5434H75.7764C76.2067 35.6827 77.0435 35.0622 78.0874 35.0622C78.3105 35.0622 78.5496 35.0782 78.689 35.1302L78.5695 37.6083V37.6043Z" fill="white"/>
<path d="M80.5418 34.1094C79.6334 34.1094 78.9321 33.4048 78.9321 32.5601C78.9321 31.7154 79.6334 31.0108 80.5418 31.0108C81.4503 31.0108 82.1515 31.6994 82.1515 32.5601C82.1515 33.4208 81.4304 34.1094 80.5418 34.1094ZM79.1353 43.8695V35.2984H81.9444V43.8695H79.1353Z" fill="white"/>
<path d="M82.9405 43.8695V41.6677L86.9488 37.4682H83.0959V35.2984H90.3755V37.4161L86.2476 41.6837H90.5468V43.8695H82.9405Z" fill="white"/>
<path d="M95.8063 44.1457C93.2363 44.1457 91.0767 42.3563 91.0767 39.5499C91.0767 36.7436 93.2363 35.0221 95.8063 35.0221C98.3763 35.0221 100.552 36.7436 100.552 39.5499C100.552 42.3563 98.3922 44.1457 95.8063 44.1457ZM95.8063 37.3641C94.4874 37.3641 93.8021 38.449 93.8021 39.5499C93.8021 40.6508 94.5034 41.7718 95.8222 41.7718C97.1411 41.7718 97.8423 40.6548 97.8423 39.5499C97.8423 38.445 97.1211 37.3641 95.8023 37.3641H95.8063Z" fill="white"/>
<path d="M107.218 43.8695V39.1856C107.218 38.2368 106.959 37.3761 105.951 37.3761C104.943 37.3761 104.445 38.2368 104.445 39.2176V43.8655H101.62V35.2944H104.345V36.4834H104.381C104.775 35.7267 105.751 35.0542 106.935 35.0542C109.23 35.0542 110.055 36.8437 110.055 38.5651V43.8655H107.23L107.218 43.8695Z" fill="white"/>
<path d="M116.47 37.8285C116.023 37.4001 115.374 37.0558 114.689 37.0558C114.159 37.0558 113.625 37.244 113.625 37.7444C113.625 38.2448 114.087 38.3649 115.183 38.6051C116.486 38.8974 117.908 39.5499 117.908 41.2233C117.908 43.3931 116.007 44.1497 114.258 44.1497C112.872 44.1497 111.433 43.6854 110.541 42.8246L112.119 41.1553C112.617 41.7077 113.386 42.1201 114.21 42.1201C114.673 42.1201 115.223 41.9319 115.223 41.3794C115.223 40.827 114.693 40.6749 113.525 40.3986C112.342 40.1224 111.039 39.5219 111.039 37.9005C111.039 35.8508 112.959 35.0261 114.585 35.0261C115.852 35.0261 117.171 35.4385 118.012 36.2312L116.47 37.8325V37.8285Z" fill="white"/>
<path d="M121 42.7926C121 42.9407 120.972 43.0809 120.916 43.213C120.861 43.3451 120.781 43.4572 120.685 43.5492C120.59 43.6453 120.474 43.7214 120.343 43.7734C120.211 43.8295 120.072 43.8575 119.924 43.8575C119.777 43.8575 119.633 43.8295 119.502 43.7734C119.37 43.7174 119.255 43.6413 119.155 43.5492C119.056 43.4532 118.98 43.3411 118.924 43.213C118.868 43.0849 118.84 42.9447 118.84 42.7926C118.84 42.6405 118.868 42.5044 118.924 42.3723C118.98 42.2402 119.06 42.1281 119.155 42.028C119.255 41.9319 119.37 41.8558 119.502 41.7958C119.633 41.7397 119.777 41.7117 119.924 41.7117C120.072 41.7117 120.211 41.7397 120.343 41.7958C120.474 41.8518 120.586 41.9279 120.685 42.028C120.781 42.1241 120.857 42.2402 120.916 42.3723C120.972 42.5044 121 42.6445 121 42.7926ZM120.829 42.7926C120.829 42.6645 120.805 42.5484 120.757 42.4363C120.709 42.3242 120.645 42.2281 120.562 42.1441C120.478 42.06 120.382 41.996 120.275 41.9479C120.167 41.8999 120.048 41.8759 119.92 41.8759C119.793 41.8759 119.677 41.8999 119.566 41.9479C119.454 41.996 119.358 42.06 119.275 42.1441C119.191 42.2281 119.127 42.3242 119.079 42.4363C119.032 42.5484 119.008 42.6685 119.008 42.7926C119.008 42.9167 119.032 43.0328 119.079 43.1449C119.127 43.257 119.191 43.3531 119.275 43.4372C119.358 43.5212 119.454 43.5853 119.566 43.6333C119.677 43.6814 119.793 43.7054 119.92 43.7054C120.048 43.7054 120.163 43.6814 120.275 43.6333C120.382 43.5853 120.478 43.5212 120.562 43.4372C120.645 43.3531 120.709 43.257 120.757 43.1449C120.805 43.0328 120.829 42.9167 120.829 42.7926ZM120.151 43.3891L119.916 42.9327H119.781V43.3891H119.446V42.1521H119.976C120.036 42.1521 120.096 42.1601 120.155 42.1721C120.215 42.1841 120.271 42.2081 120.319 42.2362C120.366 42.2682 120.406 42.3082 120.438 42.3563C120.47 42.4083 120.482 42.4683 120.482 42.5404C120.482 42.6245 120.458 42.6925 120.414 42.7526C120.366 42.8126 120.311 42.8527 120.235 42.8807L120.546 43.3891H120.151ZM120.123 42.5484C120.123 42.5084 120.104 42.4764 120.068 42.4563C120.032 42.4363 119.996 42.4283 119.956 42.4283H119.777V42.6845H119.956C120 42.6845 120.04 42.6725 120.072 42.6445C120.104 42.6205 120.119 42.5844 120.119 42.5444L120.123 42.5484Z" fill="white"/>
</svg>
